HIERARCHY
ROOT Hips
{
    OFFSET 0.0 0.0 0.0
    CHANNELS 6 Xposition Yposition Zposition Zrotation Xrotation Yrotation
    JOINT LeftHipJoint
    {
        OFFSET 0.1 0.0 0.0
        CHANNELS 3 Zrotation Xrotation Yrotation
        JOINT LeftUpLeg
        {
            OFFSET 123.94468255163073 0.0 0.0
            CHANNELS 3 Zrotation Xrotation Yrotation
            JOINT LeftLeg
            {
                OFFSET 0.0 0.0 -401.69774561973054
                CHANNELS 3 Zrotation Xrotation Yrotation
                JOINT LeftFoot
                {
                    OFFSET 0.0 0.0 -371.6274558287992
                    CHANNELS 3 Zrotation Xrotation Yrotation
                    End Site
                    {
                        OFFSET 0.0 -0.1 0.0
                    }
                }
            }
        }
    }
    JOINT LowerBack
    {
        OFFSET 0.0 0.0 0.1
        CHANNELS 3 Zrotation Xrotation Yrotation
        JOINT Spine
        {
            OFFSET 0.0 0.0 220.0825437114433
            CHANNELS 3 Zrotation Xrotation Yrotation
            JOINT Spine1
            {
                OFFSET 0.0 0.0 255.58176053886064
                CHANNELS 3 Zrotation Xrotation Yrotation
                JOINT LeftShoulder
                {
                    OFFSET 0.1 0.0 0.0
                    CHANNELS 3 Zrotation Xrotation Yrotation
                    JOINT LeftArm
                    {
                        OFFSET 144.99547583059916 0.0 0.0
                        CHANNELS 3 Zrotation Xrotation Yrotation
                        JOINT LeftForeArm
                        {
                            OFFSET 261.02569718828227 0.0 0.0
                            CHANNELS 3 Zrotation Xrotation Yrotation
                            JOINT LeftHand
                            {
                                OFFSET 235.91080262953287 0.0 0.0
                                CHANNELS 3 Zrotation Xrotation Yrotation
                                End Site
                                {
                                    OFFSET 0.1 0.0 0.0
                                }
                            }
                        }
                    }
                }
                JOINT Neck
                {
                    OFFSET 0.0 0.0 0.1
                    CHANNELS 3 Zrotation Xrotation Yrotation
                    JOINT Neck1
                    {
                        OFFSET 0.0 0.0 110.22664661774894
                        CHANNELS 3 Zrotation Xrotation Yrotation
                        End Site
                        {
                            OFFSET 0.0 0.0 114.82985155106743
                        }
                    }
                }
                JOINT RightShoulder
                {
                    OFFSET -0.1 0.0 0.0
                    CHANNELS 3 Zrotation Xrotation Yrotation
                    JOINT RightArm
                    {
                        OFFSET -144.99547583059916 0.0 0.0
                        CHANNELS 3 Zrotation Xrotation Yrotation
                        JOINT RightForeArm
                        {
                            OFFSET -261.02569718828227 0.0 0.0
                            CHANNELS 3 Zrotation Xrotation Yrotation
                            JOINT RightHand
                            {
                                OFFSET -235.91080262953287 0.0 0.0
                                CHANNELS 3 Zrotation Xrotation Yrotation
                                End Site
                                {
                                    OFFSET -0.1 0.0 0.0
                                }
                            }
                        }
                    }
                }
            }
        }
    }
    JOINT RightHipJoint
    {
        OFFSET -0.1 0.0 0.0
        CHANNELS 3 Zrotation Xrotation Yrotation
        JOINT RightUpLeg
        {
            OFFSET -123.94468255163073 0.0 0.0
            CHANNELS 3 Zrotation Xrotation Yrotation
            JOINT RightLeg
            {
                OFFSET 0.0 0.0 -401.69774561973054
                CHANNELS 3 Zrotation Xrotation Yrotation
                JOINT RightFoot
                {
                    OFFSET 0.0 0.0 -371.6274558287992
                    CHANNELS 3 Zrotation Xrotation Yrotation
                    End Site
                    {
                        OFFSET 0.0 -0.1 0.0
                    }
                }
            }
        }
    }
}
MOTION
Frames: 7
Frame Time: 0.03333333333333333
0.0 0.0 789.2899536151724 32.05786681247365 -7.669812293286049 6.977443818337398 0.0 0.0 0.0 -0.17409701360711183 -12.01780940153649 -3.1605744901932895 -1.7301202545544723 36.8400025200898 3.5321883353798946 0.0 0.0 0.0 0.0 0.0 0.0 -0.050689248146935866 -3.4673716475700225 3.792768913010256 5.2351733543988255 4.3346818813896816e-16 7.761521830546783e-16 0.0 0.0 0.0 -13.394996048054194 12.921736925893839 68.89252272120461 -15.55847140098166 1.2455554028508088e-14 -8.931847196174086e-15 -2.385416011097637e-15 3.975693351829398e-16 -8.74652537402467e-15 0.0 0.0 0.0 -19.444821982847394 2.910200154868585 -12.374814109651192 0.0 0.0 0.0 67.19281162928033 -49.78054879354638 30.428771008533865 60.68348724696237 -7.330716305890493e-15 -3.079796901367536e-15 0.0 0.0 0.0 0.0 0.0 0.0 -0.03481586276272079 -2.138389680401627 -2.3025677524274624 -1.01422561677428 34.72282900371707 1.8577187419493828 0.0 0.0 -7.951386703658792e-16
0.0 0.0 789.2899536151724 32.04404722173594 -7.624274150090427 6.920079605750719 0.0 0.0 0.0 -0.14662322182593063 -12.183143629056485 -3.104570190589072 -1.7741394023277253 36.526805673907575 3.4633226654008307 0.0 0.0 7.951386703658792e-16 0.0 0.0 0.0 -0.042290449530767577 -3.4700294979090693 3.8664381292245302 5.438708132341778 2.3072809041346935e-15 -1.7016598942976923e-15 0.0 0.0 0.0 -14.035394848522184 13.322515800807409 68.88681255544945 -15.73807268788739 -5.19256305037848e-15 1.7242681961857838e-14 -2.3854160110976368e-15 1.3655522609592679e-31 -6.559894030518502e-15 0.0 0.0 0.0 -19.765415999908758 2.955374133536473 -12.5983347293785 0.0 0.0 0.0 65.54752885138585 -48.200806671169715 28.94560554807982 62.035391129447945 -9.281556132885334e-15 -9.264096995517158e-15 3.1805546814635168e-15 0.0 0.0 0.0 0.0 0.0 -0.027944242414946856 -2.0048816848872306 -2.3360525753894503 -1.099169176140231 33.88855858988362 2.0558469798441816 3.1805546814635168e-15 -2.2069531490250793e-32 -7.951386703658792e-16
0.0 0.0 789.2899536151724 31.935643544025535 -7.709891889010666 6.8421019113705706 0.0 0.0 0.0 -0.0955954728722578 -12.076872394062512 -2.9191385077782166 -1.7912688978445581 36.196345243484416 3.1913006672937723 2.758691436281349e-33 3.975693351829396e-16 -7.951386703658792e-16 0.0 0.0 0.0 -0.027087030488590496 -3.33308921446396 3.8849653094725376 5.489952754008497 -4.35192788562506e-16 -7.75186505411577e-16 0.0 0.0 0.0 -14.429550507749704 13.584301545692231 68.98517428222205 -15.827565961039486 1.0203715081588047e-14 -3.009089104968777e-14 1.5902773407317584e-15 2.758691436281349e-33 1.987846675914698e-16 0.0 0.0 0.0 -20.12459849082577 3.2643722431402136 -12.805898435941568 0.0 0.0 0.0 64.2527947390203 -46.605178402921894 27.613945674111363 63.59448994537239 -7.030526707385589e-16 7.920244153641301e-15 0.0 0.0 0.0 0.0 0.0 0.0 -0.01988708714943556 -2.0177215955505883 -2.229727456677402 -1.1595844626346676 33.338790976604315 2.1768966155760516 0.0 0.0 -7.951386703658792e-16
0.0 0.0 789.2899536151724 31.84851214900029 -7.790321941494054 6.866670165037444 0.0 0.0 0.0 -0.08740870327277922 -12.00361227757611 -2.807453521734224 -1.7180607140336261 35.904474088648726 2.7490376992074625 -3.1805546814635168e-15 3.975693351829396e-16 -7.951386703658792e-16 0.0 0.0 0.0 -0.024373787337802752 -3.252345154897964 3.762335915973735 5.5037663709339615 1.2295079550737708e-15 7.369586691407965e-16 0.0 0.0 -1.5902773407317584e-15 -16.20974693906813 14.290745005902425 69.32095171841257 -15.93903062622966 -3.3998616026278133e-15 -4.390078392599191e-15 -3.975693351829397e-16 2.4138550067461804e-32 -6.957463365701444e-15 0.0 0.0 -1.5902773407317584e-15 -20.539897343810733 3.5442527856753956 -12.893102040600962 0.0 0.0 -1.5902773407317584e-15 63.54759010735209 -45.4040211304308 26.634839844070303 65.49228309222703 1.1369117343345353e-14 -7.311779660957104e-15 0.0 0.0 0.0 0.0 0.0 0.0 -0.01810507632299719 -1.9663169205267874 -2.2600437672757447 -1.1797667253230855 32.81890233388925 2.2439882429308975 -3.1805546814635168e-15 -2.782985346280577e-15 -7.951386703658792e-16
0.0 0.0 789.2899536151724 31.840670555565147 -7.977335394262153 6.80288888968476 0.0 0.0 0.0 -0.07027835713223868 -11.811832038743761 -2.6192525849226618 -1.6272130467227177 35.738286354487194 2.333518991831395 0.0 0.0 3.975693351829396e-16 0.0 0.0 0.0 -0.01978684228882159 -3.198620469949656 3.812116654115975 5.566402945787708 3.8609491263086924e-17 7.942007380351795e-16 -6.361109362927032e-15 0.0 0.0 -17.846370268695452 15.102867395507985 69.5530316644463 -16.225628450221496 1.3039276081000535e-15 7.129586733928841e-16 0.0 0.0 -1.888454342118963e-15 -6.361109362927032e-15 0.0 0.0 -20.817454693620512 3.865720197365717 -12.975532150151343 -6.361109362927032e-15 0.0 0.0 62.748643405193704 -44.006794643394116 25.60650342782445 67.41007949360109 -1.545451309895194e-15 -6.615550024137234e-15 -1.5902773407317584e-15 0.0 0.0 0.0 0.0 0.0 -0.015372947240721541 -1.94153753273821 -2.1841599447925875 -1.1802262623003599 32.84235825763786 2.257567057833065 1.9310840053969444e-32 -2.782985346280577e-15 7.951386703658792e-16
0.0 0.0 789.2899536151724 31.98521296840804 -8.143952072524243 6.7038252485999985 0.0 1.5902773407317584e-15 0.0 -0.05460743175708327 -11.464077931089717 -2.4919629132207897 -1.5612277972303072 35.3413408402211 2.1598024948208505 -3.1805546814635168e-15 3.975693351829397e-16 -2.782985346280577e-15 0.0 1.5902773407317584e-15 0.0 -0.015830663035251647 -3.1456506988210897 3.9056636137471035 5.624885081820818 3.2547533383196707e-15 1.432302624769406e-15 0.0 0.0 0.0 -20.337298820926765 16.177380766433693 69.91352261418945 -16.654177695080392 2.0697042979177068e-14 -9.97908341362111e-15 4.9696166897867425e-17 1.5902773407317584e-15 1.7766379665987615e-15 0.0 0.0 0.0 -20.92364014206671 4.238337424165819 -12.932296294570017 0.0 0.0 0.0 62.35464721256126 -42.561451573024 24.69787037001103 69.99135813192983 -5.2109908798837485e-15 3.648189465596103e-15 0.0 0.0 0.0 0.0 1.5902773407317584e-15 0.0 -0.011805436230846341 -1.6653866377659923 -2.162742829135028 -1.2009146084730333 32.66424055386218 2.30676928495119 0.0 0.0 0.0
0.0 0.0 789.2899536151724 32.18865804548922 -8.249313198576745 6.599410973724265 0.0 0.0 0.0 -0.03882089405385475 -11.489405205729442 -2.3427336632499385 -1.5198176604231461 35.49517274323847 1.9620940101454674 0.0 0.0 3.975693351829395e-16 0.0 0.0 0.0 -0.011574750965491935 -3.1432015281091124 3.9964406670262935 5.674217514734772 3.097942830726744e-15 -1.7457549426460551e-15 0.0 0.0 -1.5902773407317584e-15 -22.42626877394597 17.011039643574293 70.3126037210868 -16.962928577714948 4.965561857834201e-16 -1.4786110952913308e-14 0.0 0.0 -5.466578358765419e-16 0.0 0.0 -1.5902773407317584e-15 -20.99880652917258 4.522847743729821 -12.790411928793672 0.0 0.0 -1.5902773407317584e-15 61.87770113634311 -40.91493335298475 23.947772930864367 72.20341332093183 1.9273501402331845e-15 -1.4055358348132172e-15 1.5902773407317584e-15 0.0 0.0 0.0 0.0 0.0 -0.009071863507269408 -1.4767892424420779 -2.073169995316112 -1.1896444844636054 32.58951125185599 2.2347791775713466 0.0 0.0 0.0
